<svg id="svg" version="1.1" xmlns="http://www.w3.org/2000/svg" xmlns:xlink="http://www.w3.org/1999/xlink" width="400" height="225" viewBox="0, 0, 400,225"><g id="svgg"><path id="path0" d="M213.855 10.055 C 212.809 10.107,211.846 10.234,211.716 10.338 C 211.586 10.442,210.493 10.599,209.286 10.687 C 208.079 10.775,207.040 10.930,206.977 11.032 C 206.914 11.134,206.103 11.288,205.176 11.375 C 204.248 11.462,203.489 11.612,203.489 11.709 C 203.489 11.807,202.881 11.957,202.138 12.043 C 201.396 12.129,200.788 12.284,200.788 12.386 C 200.788 12.489,200.231 12.643,199.550 12.728 C 198.869 12.813,198.312 12.972,198.312 13.082 C 198.312 13.191,198.121 13.281,197.887 13.281 C 197.654 13.281,197.173 13.432,196.818 13.617 C 196.463 13.802,195.951 13.954,195.680 13.955 C 195.409 13.955,195.131 14.046,195.064 14.156 C 194.996 14.265,194.564 14.426,194.105 14.512 C 193.646 14.598,193.065 14.812,192.815 14.988 C 192.564 15.163,192.128 15.307,191.846 15.307 C 191.564 15.307,191.334 15.397,191.334 15.507 C 191.334 15.618,191.055 15.773,190.715 15.851 C 189.949 16.029,181.388 20.300,180.979 20.709 C 180.808 20.880,180.048 21.331,179.245 21.737 C 178.848 21.937,178.405 22.244,178.261 22.418 C 178.116 22.592,177.898 22.735,177.776 22.735 C 177.655 22.735,177.140 23.064,176.633 23.467 C 175.750 24.167,175.166 24.555,174.465 24.905 C 174.287 24.994,173.846 25.403,173.485 25.814 C 173.124 26.225,172.703 26.562,172.550 26.562 C 172.396 26.562,172.087 26.764,171.863 27.012 C 171.639 27.259,171.372 27.462,171.270 27.462 C 171.168 27.462,170.536 28.019,169.866 28.700 C 169.196 29.381,168.559 29.938,168.451 29.938 C 168.204 29.938,162.971 35.169,162.971 35.416 C 162.971 35.516,162.572 36.021,162.084 36.538 C 160.563 38.149,159.370 39.548,159.370 39.719 C 159.370 39.809,158.914 40.403,158.357 41.040 C 157.800 41.677,157.344 42.283,157.344 42.387 C 157.344 42.491,156.946 43.049,156.459 43.629 C 155.973 44.208,155.506 44.961,155.422 45.301 C 155.338 45.642,155.176 45.920,155.063 45.920 C 154.949 45.920,154.758 46.148,154.638 46.427 C 154.412 46.948,153.941 47.747,153.742 47.946 C 153.515 48.173,153.050 48.970,152.922 49.353 C 152.849 49.569,152.708 49.747,152.608 49.747 C 152.509 49.747,152.361 50.051,152.279 50.422 C 152.198 50.793,152.038 51.097,151.924 51.097 C 151.810 51.097,151.716 51.211,151.716 51.350 C 151.716 51.489,151.109 52.836,150.366 54.343 C 149.623 55.851,149.015 57.166,149.015 57.265 C 149.015 57.475,148.438 58.828,147.982 59.686 C 147.807 60.014,147.665 60.496,147.665 60.755 C 147.665 61.015,147.570 61.227,147.453 61.227 C 147.337 61.227,147.174 61.683,147.090 62.240 C 147.007 62.797,146.860 63.253,146.764 63.253 C 146.669 63.253,146.522 63.706,146.439 64.260 C 146.356 64.815,146.202 65.321,146.097 65.386 C 145.992 65.451,145.836 66.011,145.751 66.629 C 145.666 67.248,145.515 67.755,145.415 67.755 C 145.315 67.755,145.162 68.363,145.076 69.106 C 144.990 69.849,144.828 70.513,144.716 70.582 C 144.605 70.651,144.513 71.050,144.513 71.469 C 144.513 71.887,144.421 72.287,144.307 72.357 C 144.194 72.427,144.030 73.269,143.943 74.228 C 143.855 75.186,143.699 76.077,143.595 76.207 C 143.492 76.337,143.337 77.933,143.251 79.753 C 143.165 81.572,143.008 83.061,142.903 83.061 C 142.798 83.061,142.712 85.239,142.712 87.901 C 142.712 90.563,142.799 92.741,142.904 92.741 C 143.009 92.741,143.167 94.181,143.254 95.943 C 143.341 97.704,143.496 99.198,143.598 99.263 C 143.701 99.328,143.857 100.217,143.947 101.238 C 144.037 102.259,144.201 103.095,144.312 103.095 C 144.422 103.095,144.513 103.494,144.513 103.982 C 144.513 104.470,144.607 104.928,144.723 104.999 C 144.838 105.070,145.001 105.685,145.087 106.366 C 145.172 107.046,145.328 107.656,145.433 107.722 C 145.539 107.787,145.692 108.343,145.774 108.957 C 145.855 109.571,145.999 110.073,146.092 110.073 C 146.186 110.073,146.331 110.527,146.414 111.081 C 146.497 111.635,146.652 112.142,146.758 112.208 C 146.864 112.273,147.018 112.731,147.102 113.225 C 147.185 113.718,147.335 114.173,147.434 114.234 C 147.533 114.295,147.680 114.701,147.762 115.135 C 147.843 115.570,148.007 115.926,148.125 115.926 C 148.243 115.926,148.340 116.130,148.340 116.379 C 148.340 116.628,148.429 117.008,148.538 117.223 C 149.115 118.361,149.690 119.720,149.690 119.946 C 149.690 120.087,149.787 120.203,149.905 120.203 C 150.024 120.203,150.186 120.554,150.267 120.982 C 150.347 121.411,150.554 121.880,150.727 122.023 C 150.900 122.166,151.041 122.423,151.041 122.594 C 151.041 122.764,151.134 122.904,151.248 122.904 C 151.362 122.904,151.522 123.208,151.604 123.579 C 151.685 123.950,151.834 124.254,151.935 124.254 C 152.036 124.254,152.187 124.533,152.272 124.873 C 152.357 125.214,152.649 125.796,152.922 126.168 C 153.194 126.539,153.614 127.223,153.856 127.687 C 154.097 128.151,154.365 128.531,154.451 128.531 C 154.537 128.531,154.674 128.835,154.755 129.207 C 154.837 129.578,154.999 129.882,155.116 129.882 C 155.233 129.882,155.428 130.110,155.548 130.388 C 155.861 131.112,156.263 131.722,156.781 132.258 C 157.313 132.809,157.713 133.407,158.011 134.095 C 158.130 134.370,158.434 134.724,158.686 134.881 C 158.938 135.039,159.145 135.276,159.145 135.409 C 159.145 135.542,159.449 135.941,159.820 136.297 C 160.191 136.653,160.495 137.083,160.495 137.252 C 160.495 137.625,170.717 147.890,171.088 147.890 C 171.233 147.890,171.964 148.420,172.712 149.069 C 173.980 150.167,174.510 150.548,175.347 150.963 C 175.530 151.054,175.885 151.337,176.136 151.591 C 176.651 152.113,177.251 152.514,177.997 152.837 C 178.275 152.957,178.503 153.152,178.503 153.269 C 178.503 153.386,178.807 153.548,179.178 153.630 C 179.550 153.711,179.854 153.848,179.854 153.934 C 179.854 154.020,180.234 154.285,180.698 154.524 C 181.162 154.763,181.698 155.086,181.889 155.243 C 182.389 155.654,184.868 156.887,185.200 156.891 C 185.355 156.892,185.481 156.992,185.481 157.113 C 185.481 157.365,187.308 158.244,187.832 158.244 C 188.025 158.244,188.182 158.335,188.182 158.445 C 188.182 158.555,188.455 158.714,188.788 158.798 C 189.121 158.881,189.663 159.142,189.993 159.377 C 190.323 159.612,191.013 159.871,191.526 159.953 C 192.039 160.035,192.459 160.186,192.459 160.289 C 192.459 160.391,192.815 160.542,193.250 160.623 C 193.684 160.705,194.090 160.852,194.151 160.951 C 194.212 161.050,194.666 161.200,195.160 161.283 C 195.654 161.367,196.110 161.518,196.173 161.621 C 196.237 161.723,196.692 161.875,197.186 161.958 C 197.680 162.042,198.136 162.193,198.198 162.295 C 198.261 162.396,198.819 162.549,199.437 162.634 C 200.056 162.719,200.619 162.880,200.688 162.992 C 200.758 163.105,201.112 163.196,201.476 163.196 C 201.841 163.196,202.138 163.286,202.138 163.396 C 202.138 163.505,202.721 163.667,203.433 163.755 C 204.145 163.843,204.828 163.994,204.952 164.091 C 205.076 164.188,205.988 164.341,206.978 164.430 C 207.968 164.519,208.884 164.678,209.012 164.782 C 209.141 164.887,210.685 165.044,212.445 165.131 C 214.205 165.218,215.644 165.376,215.644 165.481 C 215.644 165.732,225.486 165.731,225.641 165.480 C 225.706 165.375,227.153 165.216,228.857 165.128 C 230.560 165.040,232.058 164.883,232.184 164.780 C 232.311 164.677,233.301 164.520,234.384 164.431 C 235.467 164.342,236.353 164.189,236.353 164.092 C 236.353 163.995,236.961 163.845,237.704 163.759 C 238.447 163.673,239.112 163.511,239.181 163.399 C 239.250 163.288,239.598 163.196,239.955 163.196 C 240.312 163.196,240.659 163.107,240.727 162.997 C 240.794 162.888,241.305 162.730,241.860 162.647 C 242.416 162.563,242.926 162.406,242.994 162.296 C 243.061 162.187,243.570 162.029,244.125 161.946 C 244.679 161.863,245.132 161.711,245.132 161.609 C 245.132 161.507,245.588 161.355,246.145 161.271 C 246.702 161.188,247.158 161.043,247.158 160.949 C 247.158 160.855,247.576 160.711,248.087 160.629 C 248.598 160.548,249.228 160.332,249.488 160.150 C 249.747 159.969,250.182 159.820,250.453 159.820 C 250.725 159.820,250.981 159.743,251.022 159.649 C 251.118 159.431,253.417 158.247,253.763 158.237 C 254.121 158.228,255.906 157.334,256.726 156.754 C 257.097 156.492,257.653 156.200,257.963 156.105 C 258.272 156.010,258.576 155.870,258.638 155.794 C 258.819 155.572,259.618 155.091,260.045 154.948 C 260.262 154.875,260.439 154.734,260.439 154.634 C 260.439 154.535,260.743 154.387,261.114 154.305 C 261.486 154.223,261.790 154.061,261.790 153.944 C 261.790 153.827,262.017 153.633,262.296 153.512 C 262.750 153.316,263.201 153.053,263.916 152.568 C 264.046 152.480,264.521 152.100,264.971 151.724 C 265.420 151.348,265.866 151.041,265.960 151.041 C 266.055 151.041,266.592 150.661,267.154 150.197 C 267.715 149.733,268.302 149.302,268.458 149.240 C 268.613 149.178,269.550 148.393,270.538 147.496 C 271.527 146.598,272.420 145.864,272.524 145.864 C 272.767 145.864,278.672 139.953,278.672 139.710 C 278.672 139.610,279.457 138.671,280.416 137.624 C 281.376 136.576,282.202 135.596,282.252 135.445 C 282.302 135.295,282.682 134.756,283.096 134.248 C 283.510 133.740,283.849 133.226,283.849 133.106 C 283.849 132.985,284.102 132.649,284.412 132.358 C 284.721 132.067,284.975 131.695,284.975 131.531 C 284.975 131.367,285.078 131.232,285.205 131.232 C 285.332 131.232,285.535 131.005,285.655 130.726 C 285.919 130.116,286.381 129.362,286.589 129.204 C 286.672 129.141,287.004 128.563,287.328 127.919 C 287.651 127.275,288.007 126.691,288.119 126.622 C 288.359 126.474,289.477 124.165,289.477 123.818 C 289.477 123.687,289.570 123.579,289.683 123.579 C 289.920 123.579,291.175 121.070,291.400 120.146 C 291.483 119.806,291.642 119.527,291.752 119.527 C 291.862 119.527,291.953 119.416,291.953 119.280 C 291.953 119.012,292.477 117.749,292.986 116.791 C 293.160 116.463,293.303 115.982,293.303 115.722 C 293.303 115.463,293.393 115.250,293.503 115.250 C 293.613 115.250,293.771 114.795,293.854 114.237 C 293.938 113.680,294.090 113.225,294.192 113.225 C 294.294 113.225,294.446 112.771,294.529 112.217 C 294.612 111.663,294.767 111.156,294.872 111.090 C 294.978 111.025,295.133 110.567,295.217 110.073 C 295.300 109.579,295.449 109.125,295.548 109.064 C 295.646 109.003,295.796 108.397,295.881 107.716 C 295.966 107.036,296.130 106.420,296.245 106.349 C 296.360 106.278,296.455 105.942,296.455 105.603 C 296.455 105.264,296.555 104.885,296.678 104.762 C 296.801 104.639,296.967 103.885,297.047 103.085 C 297.127 102.286,297.271 101.530,297.368 101.405 C 297.466 101.280,297.618 100.166,297.707 98.929 C 297.796 97.692,297.982 96.608,298.119 96.519 C 298.484 96.284,298.467 79.727,298.101 78.987 C 297.953 78.690,297.767 77.459,297.686 76.252 C 297.605 75.045,297.458 74.057,297.361 74.057 C 297.263 74.057,297.112 73.298,297.025 72.371 C 296.938 71.443,296.774 70.627,296.661 70.557 C 296.547 70.487,296.455 70.137,296.455 69.781 C 296.455 69.424,296.363 69.075,296.251 69.006 C 296.138 68.936,295.975 68.348,295.888 67.698 C 295.800 67.048,295.651 66.415,295.555 66.292 C 295.459 66.168,295.307 65.712,295.217 65.279 C 295.126 64.845,294.974 64.389,294.879 64.266 C 294.784 64.142,294.632 63.686,294.541 63.253 C 294.451 62.819,294.299 62.364,294.204 62.240 C 294.109 62.116,293.959 61.679,293.871 61.268 C 293.783 60.857,293.569 60.249,293.396 59.917 C 293.223 59.585,293.080 59.185,293.080 59.029 C 293.079 58.873,292.985 58.569,292.871 58.354 C 292.165 57.020,290.828 54.040,290.704 53.526 C 290.624 53.191,290.416 52.799,290.242 52.655 C 290.069 52.511,289.927 52.253,289.927 52.083 C 289.927 51.912,289.834 51.773,289.720 51.773 C 289.606 51.773,289.446 51.469,289.364 51.097 C 289.283 50.726,289.131 50.422,289.026 50.422 C 288.922 50.422,288.770 50.118,288.689 49.747 C 288.607 49.375,288.463 49.071,288.369 49.071 C 288.274 49.071,288.004 48.692,287.768 48.227 C 287.531 47.763,287.110 47.070,286.832 46.687 C 286.553 46.304,286.325 45.913,286.325 45.819 C 286.325 45.724,286.021 45.264,285.650 44.795 C 285.279 44.326,284.975 43.873,284.975 43.790 C 284.975 43.706,284.569 43.157,284.074 42.570 C 283.579 41.982,283.174 41.397,283.174 41.270 C 283.174 41.142,282.971 40.854,282.724 40.630 C 282.476 40.406,282.269 40.112,282.264 39.976 C 282.259 39.841,281.955 39.481,281.589 39.178 C 281.222 38.874,280.923 38.516,280.923 38.382 C 280.923 38.248,280.366 37.589,279.685 36.916 C 279.004 36.244,278.447 35.612,278.447 35.513 C 278.447 35.276,272.658 29.488,272.420 29.488 C 272.320 29.488,271.790 29.032,271.244 28.475 C 270.697 27.918,270.139 27.462,270.004 27.462 C 269.870 27.462,269.511 27.162,269.207 26.796 C 268.904 26.430,268.546 26.126,268.413 26.121 C 268.280 26.116,267.933 25.858,267.642 25.549 C 267.351 25.239,266.976 24.986,266.808 24.986 C 266.640 24.986,266.444 24.834,266.373 24.648 C 266.302 24.463,266.118 24.311,265.965 24.311 C 265.811 24.311,265.503 24.108,265.279 23.860 C 265.054 23.613,264.775 23.410,264.657 23.410 C 264.539 23.410,264.074 23.123,263.623 22.771 C 263.172 22.419,262.473 21.990,262.071 21.816 C 261.669 21.642,261.339 21.430,261.339 21.345 C 261.339 21.260,260.884 20.963,260.326 20.685 C 259.769 20.407,259.313 20.104,259.313 20.012 C 259.313 19.920,259.010 19.778,258.638 19.696 C 258.267 19.615,257.963 19.463,257.963 19.358 C 257.963 19.254,257.659 19.102,257.288 19.021 C 256.916 18.939,256.612 18.787,256.612 18.683 C 256.612 18.579,256.319 18.429,255.960 18.351 C 255.602 18.272,255.130 18.011,254.912 17.770 C 254.695 17.529,254.380 17.333,254.213 17.333 C 254.046 17.333,253.531 17.130,253.069 16.882 C 252.608 16.635,252.101 16.432,251.945 16.432 C 251.788 16.432,251.660 16.339,251.660 16.225 C 251.660 16.111,251.331 15.947,250.929 15.861 C 250.526 15.775,250.096 15.627,249.972 15.532 C 249.848 15.437,249.418 15.288,249.015 15.202 C 248.613 15.116,248.284 14.964,248.284 14.864 C 248.284 14.764,247.830 14.615,247.276 14.531 C 246.722 14.448,246.216 14.296,246.153 14.194 C 246.090 14.091,245.669 13.938,245.220 13.854 C 244.770 13.769,244.237 13.618,244.035 13.517 C 243.119 13.058,242.474 12.846,241.588 12.711 C 241.063 12.632,240.581 12.483,240.519 12.382 C 240.456 12.280,239.873 12.126,239.223 12.039 C 238.573 11.951,237.940 11.801,237.817 11.705 C 237.693 11.609,236.933 11.457,236.128 11.367 C 235.324 11.278,234.563 11.123,234.438 11.022 C 234.313 10.922,233.199 10.768,231.962 10.681 C 230.725 10.593,229.595 10.428,229.450 10.313 C 229.174 10.094,217.112 9.895,213.855 10.055 M232.189 43.982 C 233.471 44.438,235.910 44.940,238.379 45.255 C 241.143 45.608,242.715 45.937,243.669 46.362 C 245.486 47.171,247.149 47.704,248.321 47.852 C 249.620 48.016,250.876 48.458,251.427 48.943 C 251.775 49.251,253.346 49.624,255.315 49.867 C 255.978 49.949,256.792 50.274,257.465 50.727 C 258.060 51.128,259.250 51.693,260.108 51.983 C 260.966 52.273,262.025 52.787,262.461 53.124 C 262.896 53.462,263.732 53.866,264.318 54.022 C 264.904 54.177,266.012 54.748,266.782 55.290 C 267.551 55.831,268.292 56.275,268.430 56.275 C 269.745 56.275,270.781 58.961,270.088 60.573 C 269.635 61.626,269.613 61.848,269.854 63.012 C 269.999 63.716,270.118 65.988,270.118 68.059 L 270.118 71.826 269.304 73.335 C 268.857 74.166,268.317 75.098,268.105 75.408 C 267.894 75.718,267.593 76.292,267.436 76.685 C 267.048 77.660,264.638 79.928,261.564 82.212 C 260.075 83.318,259.370 83.737,258.996 83.737 C 258.812 83.737,258.186 83.990,257.604 84.299 C 257.021 84.609,256.282 84.863,255.960 84.864 C 255.638 84.864,255.070 85.066,254.699 85.312 C 254.328 85.558,253.765 85.760,253.450 85.761 C 253.134 85.762,252.775 85.863,252.653 85.986 C 252.254 86.384,250.269 86.690,246.621 86.914 C 244.325 87.055,242.818 87.250,242.412 87.461 C 241.469 87.948,231.235 87.934,229.795 87.444 C 229.044 87.188,228.033 87.115,225.875 87.162 L 222.967 87.226 222.734 89.026 C 222.605 90.017,222.414 90.965,222.307 91.134 C 222.201 91.303,222.031 93.227,221.928 95.411 C 221.826 97.594,221.581 100.597,221.384 102.082 C 220.830 106.255,220.704 110.621,221.107 111.618 C 222.994 116.279,222.255 119.527,219.310 119.527 C 217.959 119.527,216.320 118.031,216.320 116.799 C 216.320 116.595,216.168 116.137,215.983 115.783 C 215.798 115.428,215.646 114.976,215.646 114.779 C 215.645 114.581,215.479 114.087,215.277 113.682 C 214.819 112.764,214.935 102.131,215.416 100.957 C 215.577 100.562,215.733 98.782,215.789 96.680 C 215.882 93.216,216.006 92.108,216.662 88.914 C 218.297 80.941,217.808 81.399,224.803 81.305 C 228.936 81.249,230.069 81.301,230.905 81.586 C 232.312 82.065,239.604 82.088,240.732 81.617 C 241.185 81.428,242.759 81.240,244.608 81.153 C 246.320 81.073,248.227 80.896,248.846 80.759 C 250.288 80.441,252.607 79.698,252.898 79.461 C 253.022 79.360,253.698 79.111,254.401 78.907 C 255.103 78.704,256.015 78.290,256.427 77.987 C 256.838 77.685,257.479 77.294,257.850 77.118 C 258.222 76.942,258.779 76.526,259.088 76.194 C 259.398 75.861,260.031 75.394,260.495 75.156 C 260.959 74.918,261.339 74.649,261.339 74.558 C 261.339 74.466,261.797 73.835,262.357 73.155 C 262.916 72.475,263.483 71.514,263.617 71.019 C 263.750 70.523,263.960 69.995,264.084 69.844 C 265.400 68.238,263.208 61.902,261.336 61.902 C 261.022 61.902,259.767 61.396,258.548 60.777 C 257.328 60.158,256.115 59.648,255.852 59.643 C 255.589 59.639,255.121 59.490,254.811 59.313 C 254.502 59.137,254.036 58.988,253.776 58.984 C 253.516 58.979,252.884 58.672,252.371 58.301 C 251.602 57.744,251.220 57.625,250.192 57.625 C 249.506 57.625,248.572 57.469,248.116 57.279 C 247.661 57.089,246.676 56.872,245.929 56.797 C 245.181 56.722,244.063 56.452,243.444 56.196 C 240.695 55.063,206.740 55.014,204.632 56.140 C 204.176 56.383,203.071 56.622,201.930 56.722 C 200.869 56.816,199.696 57.057,199.325 57.257 C 198.951 57.460,198.128 57.623,197.481 57.624 C 196.838 57.625,196.254 57.720,196.182 57.836 C 195.931 58.243,194.633 58.751,193.831 58.756 C 193.386 58.758,192.580 58.961,192.041 59.206 C 191.501 59.451,190.709 59.651,190.281 59.651 C 189.798 59.651,189.223 59.864,188.765 60.214 C 188.359 60.523,187.907 60.777,187.760 60.777 C 187.335 60.777,185.371 61.829,185.031 62.240 C 184.861 62.445,184.259 62.863,183.694 63.169 C 183.130 63.474,181.958 64.277,181.092 64.952 C 177.423 67.810,174.686 66.032,175.718 61.462 C 176.030 60.078,176.236 59.681,177.125 58.751 C 177.697 58.151,178.401 57.349,178.689 56.968 C 178.977 56.586,179.347 56.275,179.512 56.275 C 179.677 56.275,180.143 55.874,180.547 55.385 C 180.952 54.896,181.555 54.383,181.887 54.246 C 182.219 54.108,182.707 53.703,182.972 53.345 C 183.236 52.988,183.934 52.483,184.523 52.223 C 185.112 51.962,185.898 51.456,186.269 51.097 C 186.974 50.416,188.335 49.747,189.014 49.747 C 189.434 49.747,191.941 48.843,193.520 48.122 C 194.041 47.884,195.054 47.603,195.771 47.497 C 197.473 47.247,200.160 46.608,200.448 46.385 C 201.145 45.846,203.064 45.469,205.161 45.460 C 206.408 45.455,207.833 45.356,208.329 45.242 C 208.824 45.127,209.786 44.918,210.467 44.777 C 211.148 44.637,212.566 44.282,213.618 43.988 C 216.183 43.273,230.186 43.268,232.189 43.982 M223.009 131.155 C 225.688 133.324,226.233 138.637,223.904 139.891 C 222.581 140.603,218.396 140.314,217.312 139.436 C 214.572 137.217,215.354 131.007,218.373 131.007 C 218.577 131.007,219.034 130.850,219.389 130.658 C 220.380 130.121,222.007 130.345,223.009 131.155 " stroke="none" fill="#1bbb53" fill-rule="evenodd"></path><path id="path1" d="M23.207 22.795 C 21.624 23.608,21.729 22.241,21.661 42.910 C 21.602 60.692,21.617 61.517,22.024 62.437 C 22.697 63.959,24.252 64.523,25.779 63.798 C 27.209 63.119,27.237 62.920,27.240 53.314 C 27.244 43.719,27.201 44.031,28.475 44.475 C 29.577 44.858,42.200 44.944,42.431 44.569 C 42.621 44.262,44.280 44.284,44.474 44.597 C 44.560 44.736,44.713 47.141,44.815 49.943 C 45.085 57.402,45.277 59.018,46.007 59.975 C 47.911 62.472,52.075 60.251,51.090 57.265 C 50.942 56.818,50.734 54.108,50.628 51.243 C 50.342 43.567,50.012 38.281,49.752 37.194 C 49.625 36.666,49.522 34.656,49.522 32.726 C 49.522 29.914,49.447 29.061,49.145 28.425 C 48.395 26.843,46.039 26.564,44.703 27.899 L 44.007 28.595 43.894 33.600 L 43.782 38.604 42.544 38.755 C 39.874 39.081,27.504 38.925,27.365 38.564 C 27.295 38.380,27.237 35.196,27.237 31.488 C 27.237 24.048,27.153 23.503,25.915 22.862 C 25.100 22.441,23.951 22.412,23.207 22.795 M53.263 28.132 C 50.976 28.864,50.593 32.197,52.673 33.266 C 53.939 33.916,57.361 33.534,58.090 32.660 C 60.372 29.926,57.137 26.892,53.263 28.132 M59.319 41.768 C 58.392 42.086,58.221 42.260,57.716 43.396 C 57.250 44.444,57.482 50.769,58.073 53.123 C 58.553 55.036,59.112 57.565,59.325 58.786 C 59.486 59.714,60.464 60.837,61.396 61.166 C 61.736 61.286,62.369 61.518,62.802 61.681 C 64.115 62.175,66.339 62.225,67.323 61.781 C 70.470 60.362,68.944 54.116,65.458 54.147 L 64.238 54.158 63.929 53.022 C 63.760 52.397,63.549 50.518,63.461 48.846 C 63.125 42.440,62.160 40.791,59.319 41.768 M213.618 43.988 C 212.566 44.282,211.148 44.637,210.467 44.777 C 209.786 44.918,208.824 45.127,208.329 45.242 C 207.833 45.356,206.408 45.455,205.161 45.460 C 203.064 45.469,201.145 45.846,200.448 46.385 C 200.160 46.608,197.473 47.247,195.771 47.497 C 195.054 47.603,194.041 47.884,193.520 48.122 C 191.941 48.843,189.434 49.747,189.014 49.747 C 188.335 49.747,186.974 50.416,186.269 51.097 C 185.898 51.456,185.112 51.962,184.523 52.223 C 183.934 52.483,183.236 52.988,182.972 53.345 C 182.707 53.703,182.219 54.108,181.887 54.246 C 181.555 54.383,180.952 54.896,180.547 55.385 C 180.143 55.874,179.677 56.275,179.512 56.275 C 179.347 56.275,178.977 56.586,178.689 56.968 C 178.401 57.349,177.697 58.151,177.125 58.751 C 176.236 59.681,176.030 60.078,175.718 61.462 C 174.686 66.032,177.423 67.810,181.092 64.952 C 181.958 64.277,183.130 63.474,183.694 63.169 C 184.259 62.863,184.861 62.445,185.031 62.240 C 185.371 61.829,187.335 60.777,187.760 60.777 C 187.907 60.777,188.359 60.523,188.765 60.214 C 189.223 59.864,189.798 59.651,190.281 59.651 C 190.709 59.651,191.501 59.451,192.041 59.206 C 192.580 58.961,193.386 58.758,193.831 58.756 C 194.633 58.751,195.931 58.243,196.182 57.836 C 196.254 57.720,196.838 57.625,197.481 57.624 C 198.128 57.623,198.951 57.460,199.325 57.257 C 199.696 57.057,200.869 56.816,201.930 56.722 C 203.071 56.622,204.176 56.383,204.632 56.140 C 206.740 55.014,240.695 55.063,243.444 56.196 C 244.063 56.452,245.181 56.722,245.929 56.797 C 246.676 56.872,247.661 57.089,248.116 57.279 C 248.572 57.469,249.506 57.625,250.192 57.625 C 251.220 57.625,251.602 57.744,252.371 58.301 C 252.884 58.672,253.516 58.979,253.776 58.984 C 254.036 58.988,254.502 59.137,254.811 59.313 C 255.121 59.490,255.589 59.639,255.852 59.643 C 256.115 59.648,257.328 60.158,258.548 60.777 C 259.767 61.396,261.022 61.902,261.336 61.902 C 263.208 61.902,265.400 68.238,264.084 69.844 C 263.960 69.995,263.750 70.523,263.617 71.019 C 263.483 71.514,262.916 72.475,262.357 73.155 C 261.797 73.835,261.339 74.466,261.339 74.558 C 261.339 74.649,260.959 74.918,260.495 75.156 C 260.031 75.394,259.398 75.861,259.088 76.194 C 258.779 76.526,258.222 76.942,257.850 77.118 C 257.479 77.294,256.838 77.685,256.427 77.987 C 256.015 78.290,255.103 78.704,254.401 78.907 C 253.698 79.111,253.022 79.360,252.898 79.461 C 252.607 79.698,250.288 80.441,248.846 80.759 C 248.227 80.896,246.320 81.073,244.608 81.153 C 242.759 81.240,241.185 81.428,240.732 81.617 C 239.604 82.088,232.312 82.065,230.905 81.586 C 230.069 81.301,228.936 81.249,224.803 81.305 C 217.808 81.399,218.297 80.941,216.662 88.914 C 216.006 92.108,215.882 93.216,215.789 96.680 C 215.733 98.782,215.577 100.562,215.416 100.957 C 214.935 102.131,214.819 112.764,215.277 113.682 C 215.479 114.087,215.645 114.581,215.646 114.779 C 215.646 114.976,215.798 115.428,215.983 115.783 C 216.168 116.137,216.320 116.595,216.320 116.799 C 216.320 118.031,217.959 119.527,219.310 119.527 C 222.255 119.527,222.994 116.279,221.107 111.618 C 220.704 110.621,220.830 106.255,221.384 102.082 C 221.581 100.597,221.826 97.594,221.928 95.411 C 222.031 93.227,222.201 91.303,222.307 91.134 C 222.414 90.965,222.605 90.017,222.734 89.026 L 222.967 87.226 225.875 87.162 C 228.033 87.115,229.044 87.188,229.795 87.444 C 231.235 87.934,241.469 87.948,242.412 87.461 C 242.818 87.250,244.325 87.055,246.621 86.914 C 250.269 86.690,252.254 86.384,252.653 85.986 C 252.775 85.863,253.134 85.762,253.450 85.761 C 253.765 85.760,254.328 85.558,254.699 85.312 C 255.070 85.066,255.638 84.864,255.960 84.864 C 256.282 84.863,257.021 84.609,257.604 84.299 C 258.186 83.990,258.812 83.737,258.996 83.737 C 259.370 83.737,260.075 83.318,261.564 82.212 C 264.638 79.928,267.048 77.660,267.436 76.685 C 267.593 76.292,267.894 75.718,268.105 75.408 C 268.317 75.098,268.857 74.166,269.304 73.335 L 270.118 71.826 270.118 68.059 C 270.118 65.988,269.999 63.716,269.854 63.012 C 269.613 61.848,269.635 61.626,270.088 60.573 C 270.781 58.961,269.745 56.275,268.430 56.275 C 268.292 56.275,267.551 55.831,266.782 55.290 C 266.012 54.748,264.904 54.177,264.318 54.022 C 263.732 53.866,262.896 53.462,262.461 53.124 C 262.025 52.787,260.966 52.273,260.108 51.983 C 259.250 51.693,258.060 51.128,257.465 50.727 C 256.792 50.274,255.978 49.949,255.315 49.867 C 253.346 49.624,251.775 49.251,251.427 48.943 C 250.876 48.458,249.620 48.016,248.321 47.852 C 247.149 47.704,245.486 47.171,243.669 46.362 C 242.715 45.937,241.143 45.608,238.379 45.255 C 235.910 44.940,233.471 44.438,232.189 43.982 C 230.186 43.268,216.183 43.273,213.618 43.988 M84.116 52.122 C 82.686 52.643,82.312 53.336,81.753 56.500 C 81.633 57.181,81.327 58.599,81.075 59.651 C 80.822 60.703,80.458 62.362,80.267 63.336 C 80.076 64.311,79.798 65.255,79.648 65.435 C 78.645 66.644,77.769 71.088,78.328 72.132 C 79.855 74.986,83.092 73.549,84.300 69.483 C 84.481 68.872,84.724 68.258,84.839 68.120 C 84.954 67.981,85.216 67.158,85.421 66.292 C 85.626 65.425,85.939 64.246,86.116 63.673 C 86.293 63.099,86.438 62.275,86.438 61.841 C 86.438 61.104,86.746 59.867,87.459 57.738 C 88.347 55.090,87.988 52.915,86.568 52.335 C 85.341 51.833,84.991 51.803,84.116 52.122 M219.389 130.658 C 219.034 130.850,218.577 131.007,218.373 131.007 C 215.354 131.007,214.572 137.217,217.312 139.436 C 219.157 140.931,224.154 140.494,224.974 138.766 C 226.848 134.818,222.734 128.846,219.389 130.658 " stroke="none" fill="#040504" fill-rule="evenodd"></path><path id="path2" d="M0.000 112.549 L 0.000 225.098 200.000 225.098 L 400.000 225.098 400.000 112.549 L 400.000 0.000 200.000 0.000 L 0.000 0.000 0.000 112.549 M229.454 10.118 C 229.584 10.248,230.272 10.355,230.983 10.355 C 231.694 10.355,232.331 10.445,232.400 10.556 C 232.468 10.667,233.336 10.829,234.328 10.917 C 235.319 11.005,236.180 11.156,236.239 11.252 C 236.298 11.348,237.007 11.498,237.813 11.584 C 238.620 11.670,239.280 11.821,239.280 11.919 C 239.280 12.017,239.782 12.164,240.396 12.245 C 241.010 12.327,241.565 12.478,241.629 12.582 C 241.693 12.686,242.250 12.838,242.867 12.920 C 243.484 13.002,244.042 13.156,244.108 13.262 C 244.173 13.368,244.595 13.524,245.045 13.608 C 245.495 13.693,246.078 13.872,246.342 14.007 C 247.376 14.535,247.613 14.631,247.887 14.633 C 248.043 14.634,248.443 14.776,248.775 14.949 C 249.107 15.122,249.696 15.334,250.084 15.419 C 250.668 15.547,253.525 16.842,254.811 17.561 C 254.997 17.665,256.187 18.283,257.456 18.934 C 258.725 19.584,259.764 20.192,259.764 20.283 C 259.764 20.374,260.068 20.515,260.439 20.597 C 260.810 20.678,261.114 20.815,261.114 20.901 C 261.114 20.987,261.494 21.253,261.958 21.494 C 262.423 21.734,263.172 22.213,263.623 22.558 C 264.074 22.903,264.511 23.185,264.595 23.185 C 264.679 23.185,265.228 23.590,265.815 24.086 C 266.403 24.581,266.959 24.986,267.051 24.986 C 267.264 24.986,268.932 26.289,269.571 26.956 C 269.838 27.234,270.151 27.462,270.266 27.462 C 270.381 27.462,270.922 27.918,271.469 28.475 C 272.016 29.032,272.538 29.488,272.630 29.488 C 272.974 29.488,280.923 37.810,280.923 38.171 C 280.923 38.283,281.173 38.629,281.479 38.940 C 282.362 39.837,283.399 41.123,283.399 41.321 C 283.399 41.420,283.804 41.982,284.299 42.570 C 284.795 43.157,285.200 43.699,285.200 43.775 C 285.200 43.933,286.137 45.300,286.364 45.472 C 286.447 45.535,286.584 45.864,286.669 46.204 C 286.755 46.543,286.906 46.820,287.005 46.820 C 287.104 46.820,287.403 47.270,287.669 47.819 C 287.935 48.368,288.225 48.849,288.314 48.888 C 288.404 48.927,288.857 49.719,289.322 50.647 C 289.786 51.576,290.349 52.639,290.572 53.011 C 290.795 53.382,291.053 53.989,291.145 54.359 C 291.238 54.729,291.384 55.084,291.470 55.147 C 291.754 55.356,292.804 57.566,292.964 58.292 C 293.050 58.685,293.262 59.278,293.436 59.610 C 293.609 59.942,293.751 60.385,293.752 60.594 C 293.753 60.804,293.846 61.032,293.959 61.102 C 294.072 61.172,294.233 61.633,294.316 62.127 C 294.400 62.621,294.549 63.075,294.648 63.136 C 294.747 63.198,294.897 63.616,294.981 64.066 C 295.066 64.516,295.229 65.074,295.345 65.306 C 295.460 65.539,295.643 65.910,295.752 66.132 C 295.860 66.353,296.024 67.088,296.115 67.764 C 296.206 68.440,296.370 69.104,296.480 69.241 C 296.590 69.377,296.745 70.112,296.824 70.873 C 296.904 71.634,297.044 72.257,297.136 72.257 C 297.227 72.257,297.375 73.042,297.464 74.001 C 297.552 74.961,297.711 75.851,297.815 75.979 C 297.920 76.107,298.077 77.652,298.164 79.412 C 298.251 81.171,298.409 82.611,298.514 82.611 C 298.765 82.611,298.764 92.678,298.514 92.833 C 298.408 92.898,298.249 94.345,298.161 96.049 C 298.073 97.752,297.916 99.249,297.813 99.376 C 297.710 99.503,297.553 100.492,297.464 101.576 C 297.375 102.659,297.222 103.545,297.125 103.545 C 297.028 103.545,296.879 104.153,296.792 104.896 C 296.706 105.639,296.554 106.298,296.454 106.360 C 296.354 106.422,296.199 107.000,296.111 107.645 C 296.022 108.290,295.860 108.998,295.752 109.220 C 295.643 109.442,295.460 109.813,295.345 110.045 C 295.229 110.278,295.066 110.836,294.981 111.286 C 294.897 111.736,294.744 112.156,294.641 112.219 C 294.539 112.283,294.387 112.788,294.304 113.342 C 294.221 113.897,294.074 114.350,293.979 114.350 C 293.883 114.350,293.736 114.806,293.653 115.363 C 293.569 115.920,293.414 116.376,293.307 116.376 C 293.201 116.376,293.044 116.694,292.959 117.082 C 292.874 117.471,292.469 118.431,292.059 119.217 C 291.650 120.002,291.248 120.950,291.166 121.324 C 291.084 121.698,290.934 122.003,290.834 122.003 C 290.733 122.003,290.581 122.281,290.496 122.620 C 290.411 122.959,290.260 123.289,290.160 123.352 C 289.978 123.466,288.600 125.934,287.642 127.856 C 287.365 128.413,287.047 128.931,286.936 129.007 C 286.746 129.138,286.322 129.806,285.952 130.557 C 285.762 130.941,285.686 131.045,284.795 132.133 C 284.441 132.566,284.086 133.098,284.007 133.315 C 283.928 133.531,283.759 133.708,283.631 133.708 C 283.503 133.708,283.399 133.843,283.399 134.007 C 283.399 134.171,283.146 134.543,282.836 134.834 C 282.527 135.125,282.273 135.476,282.273 135.615 C 282.273 135.754,281.974 136.117,281.608 136.420 C 281.242 136.724,280.938 137.078,280.932 137.207 C 280.927 137.336,280.467 137.889,279.910 138.436 C 279.353 138.982,278.897 139.534,278.897 139.661 C 278.897 139.949,273.016 145.864,272.730 145.864 C 272.548 145.864,270.955 147.250,269.215 148.922 C 268.905 149.221,268.563 149.465,268.457 149.465 C 268.351 149.465,267.896 149.773,267.447 150.149 C 266.174 151.212,266.098 151.266,265.886 151.266 C 265.776 151.266,265.503 151.469,265.279 151.716 C 265.054 151.964,264.735 152.167,264.568 152.167 C 264.402 152.167,264.266 152.270,264.266 152.397 C 264.266 152.524,264.038 152.726,263.759 152.847 C 263.182 153.096,262.407 153.565,262.240 153.764 C 262.178 153.839,261.621 154.178,261.002 154.518 C 260.383 154.859,259.724 155.258,259.539 155.406 C 259.076 155.774,257.184 156.669,256.869 156.669 C 256.728 156.669,256.612 156.761,256.612 156.875 C 256.612 156.988,255.929 157.406,255.093 157.803 C 254.257 158.200,252.958 158.816,252.205 159.172 C 251.452 159.528,250.693 159.823,250.517 159.827 C 250.341 159.831,250.000 159.983,249.760 160.165 C 249.520 160.346,249.089 160.495,248.803 160.495 C 248.517 160.495,248.284 160.590,248.284 160.707 C 248.284 160.823,247.828 160.986,247.271 161.070 C 246.714 161.153,246.258 161.298,246.258 161.392 C 246.258 161.486,245.848 161.629,245.348 161.709 C 244.464 161.850,244.237 161.931,243.158 162.491 C 242.876 162.637,242.193 162.818,241.638 162.894 C 241.084 162.970,240.630 163.108,240.630 163.201 C 240.630 163.294,240.048 163.442,239.336 163.530 C 238.624 163.618,237.930 163.782,237.794 163.893 C 237.657 164.005,236.897 164.161,236.105 164.240 C 235.313 164.319,234.563 164.463,234.438 164.560 C 234.313 164.657,233.199 164.810,231.962 164.899 C 230.725 164.988,229.641 165.173,229.552 165.311 C 229.325 165.663,212.239 165.661,211.796 165.309 C 211.622 165.170,210.535 164.989,209.380 164.905 C 208.224 164.822,207.110 164.661,206.904 164.548 C 206.697 164.435,205.844 164.280,205.008 164.202 C 204.173 164.124,203.489 163.979,203.489 163.880 C 203.489 163.780,202.907 163.626,202.195 163.538 C 201.483 163.450,200.799 163.300,200.675 163.205 C 200.551 163.110,200.015 162.966,199.484 162.885 C 198.563 162.745,198.358 162.674,197.291 162.135 C 197.040 162.007,196.483 161.828,196.053 161.736 C 195.624 161.644,195.172 161.491,195.048 161.396 C 194.924 161.300,194.487 161.151,194.076 161.063 C 193.665 160.975,193.058 160.761,192.725 160.588 C 192.393 160.415,191.944 160.272,191.728 160.272 C 191.511 160.271,191.334 160.169,191.334 160.045 C 191.334 159.921,191.129 159.820,190.879 159.820 C 190.629 159.820,189.855 159.516,189.159 159.145 C 188.463 158.773,187.706 158.469,187.475 158.469 C 187.245 158.469,187.057 158.376,187.057 158.262 C 187.057 158.148,186.753 157.988,186.382 157.907 C 186.010 157.825,185.706 157.682,185.706 157.588 C 185.706 157.494,184.871 156.993,183.849 156.474 C 181.889 155.479,181.502 155.259,180.416 154.525 C 180.045 154.274,179.361 153.870,178.897 153.629 C 178.433 153.387,178.053 153.123,178.053 153.042 C 178.053 152.961,177.876 152.830,177.659 152.752 C 177.114 152.555,176.220 152.021,176.053 151.793 C 175.977 151.689,175.408 151.255,174.789 150.829 C 174.170 150.403,173.440 149.820,173.168 149.534 C 172.895 149.249,172.582 149.015,172.471 149.015 C 172.361 149.015,172.087 148.813,171.863 148.565 C 171.639 148.317,171.362 148.115,171.249 148.115 C 170.878 148.115,162.521 140.102,162.521 139.747 C 162.521 139.652,162.015 139.081,161.396 138.478 C 160.777 137.875,160.270 137.302,160.270 137.204 C 160.270 137.107,159.941 136.652,159.539 136.195 C 159.136 135.737,158.655 135.131,158.469 134.847 C 158.076 134.248,157.025 132.842,156.615 132.366 C 156.238 131.929,155.809 131.212,155.633 130.726 C 155.555 130.509,155.424 130.332,155.343 130.332 C 155.262 130.332,154.998 129.952,154.756 129.488 C 154.514 129.024,154.111 128.340,153.860 127.968 C 153.096 126.838,152.887 126.469,151.820 124.367 C 151.254 123.253,150.709 122.189,150.608 122.003 C 149.664 120.263,148.565 117.832,148.565 117.483 C 148.565 117.246,148.464 117.051,148.340 117.051 C 148.216 117.051,148.114 116.874,148.113 116.657 C 148.113 116.441,147.964 115.981,147.784 115.635 C 147.604 115.289,147.390 114.655,147.310 114.225 C 147.229 113.796,147.079 113.393,146.977 113.329 C 146.874 113.266,146.722 112.761,146.639 112.206 C 146.556 111.652,146.410 111.199,146.314 111.199 C 146.218 111.199,146.069 110.728,145.983 110.153 C 145.897 109.577,145.733 108.919,145.620 108.689 C 145.506 108.460,145.322 108.086,145.209 107.858 C 145.097 107.631,144.933 106.871,144.846 106.170 C 144.758 105.469,144.610 104.896,144.516 104.896 C 144.423 104.896,144.274 104.162,144.185 103.264 C 144.097 102.366,143.935 101.524,143.826 101.393 C 143.717 101.261,143.559 100.147,143.474 98.917 C 143.389 97.686,143.209 96.608,143.073 96.519 C 142.722 96.292,142.724 79.058,143.074 78.833 C 143.211 78.744,143.397 77.660,143.486 76.423 C 143.575 75.186,143.730 74.072,143.830 73.947 C 143.931 73.822,144.086 73.061,144.176 72.257 C 144.265 71.452,144.417 70.692,144.513 70.568 C 144.609 70.445,144.759 69.812,144.847 69.162 C 144.934 68.512,145.097 67.924,145.210 67.854 C 145.322 67.785,145.414 67.481,145.414 67.179 C 145.414 66.876,145.502 66.629,145.610 66.629 C 145.718 66.629,145.872 66.127,145.954 65.513 C 146.035 64.899,146.194 64.339,146.308 64.270 C 146.421 64.200,146.581 63.689,146.664 63.135 C 146.747 62.581,146.894 62.127,146.989 62.127 C 147.085 62.127,147.232 61.671,147.315 61.114 C 147.399 60.557,147.554 60.101,147.661 60.101 C 147.767 60.101,147.922 59.791,148.006 59.411 C 148.089 59.031,148.299 58.449,148.472 58.117 C 148.646 57.784,148.788 57.406,148.789 57.276 C 148.791 56.922,149.330 55.828,149.504 55.826 C 149.587 55.825,149.721 55.521,149.803 55.149 C 149.885 54.778,150.037 54.474,150.141 54.474 C 150.245 54.474,150.397 54.170,150.478 53.799 C 150.560 53.427,150.720 53.123,150.834 53.123 C 150.948 53.123,151.044 52.997,151.047 52.842 C 151.054 52.502,152.562 49.440,153.184 48.503 C 154.040 47.214,154.206 46.930,154.338 46.539 C 154.411 46.322,154.542 46.145,154.629 46.145 C 154.716 46.145,155.016 45.689,155.294 45.132 C 155.572 44.575,155.894 44.119,156.009 44.119 C 156.124 44.119,156.218 43.983,156.218 43.817 C 156.218 43.650,156.421 43.330,156.669 43.106 C 156.916 42.882,157.119 42.596,157.119 42.470 C 157.119 42.344,157.609 41.676,158.208 40.985 C 158.808 40.295,159.339 39.609,159.390 39.461 C 159.441 39.312,160.217 38.383,161.114 37.395 C 162.012 36.407,162.746 35.517,162.746 35.417 C 162.746 35.138,168.220 29.713,168.502 29.713 C 168.638 29.713,169.223 29.232,169.803 28.644 C 170.988 27.441,172.295 26.337,172.533 26.337 C 172.619 26.337,173.212 25.881,173.848 25.324 C 174.485 24.766,175.096 24.311,175.206 24.311 C 175.315 24.311,175.773 24.003,176.222 23.628 C 176.672 23.252,177.147 22.872,177.277 22.783 C 178.106 22.221,178.435 22.032,178.784 21.914 C 179.001 21.842,179.178 21.704,179.178 21.609 C 179.178 21.515,179.356 21.372,179.572 21.293 C 179.789 21.213,180.371 20.897,180.867 20.591 C 181.362 20.284,181.944 19.970,182.161 19.894 C 182.378 19.818,182.555 19.667,182.555 19.557 C 182.555 19.448,182.681 19.358,182.836 19.357 C 182.991 19.356,183.421 19.191,183.793 18.989 C 185.742 17.931,186.974 17.338,187.226 17.335 C 187.380 17.334,187.507 17.239,187.507 17.125 C 187.507 17.011,187.811 16.851,188.182 16.770 C 188.554 16.688,188.858 16.536,188.858 16.432 C 188.858 16.328,189.168 16.175,189.548 16.091 C 189.928 16.008,190.510 15.798,190.842 15.625 C 191.175 15.451,191.598 15.306,191.784 15.301 C 191.970 15.296,192.318 15.144,192.558 14.962 C 192.799 14.780,193.229 14.631,193.515 14.631 C 193.801 14.631,194.035 14.530,194.035 14.406 C 194.035 14.282,194.288 14.181,194.598 14.181 C 194.907 14.181,195.160 14.086,195.160 13.970 C 195.160 13.854,195.617 13.690,196.176 13.606 C 196.735 13.523,197.245 13.367,197.311 13.261 C 197.376 13.155,197.932 13.002,198.546 12.921 C 199.160 12.839,199.662 12.691,199.662 12.590 C 199.662 12.490,200.144 12.338,200.732 12.253 C 201.320 12.168,201.903 12.018,202.028 11.919 C 202.153 11.820,202.890 11.668,203.665 11.580 C 204.440 11.493,205.125 11.340,205.186 11.240 C 205.248 11.141,206.108 10.989,207.099 10.903 C 208.090 10.816,208.956 10.658,209.022 10.550 C 209.089 10.443,209.725 10.355,210.435 10.355 C 211.146 10.355,211.824 10.258,211.942 10.140 C 212.417 9.665,228.980 9.644,229.454 10.118 M25.652 22.420 C 27.436 23.134,27.462 23.265,27.462 31.428 L 27.462 38.604 33.258 38.683 C 36.446 38.727,40.093 38.689,41.362 38.598 L 43.669 38.434 43.669 33.562 L 43.669 28.690 44.334 27.883 C 45.316 26.693,46.640 26.368,47.965 26.993 C 49.574 27.753,49.747 28.272,49.747 32.333 C 49.747 34.249,49.849 36.241,49.975 36.760 C 50.230 37.813,50.550 43.037,50.867 51.302 C 50.991 54.522,51.175 56.893,51.313 57.030 C 51.998 57.716,51.331 59.969,50.205 60.771 C 47.838 62.456,45.168 60.680,44.938 57.268 C 44.813 55.423,44.389 46.607,44.361 45.277 L 44.344 44.522 43.388 44.689 C 42.054 44.922,29.087 44.948,28.194 44.720 L 27.462 44.534 27.462 53.465 C 27.462 61.215,27.415 62.475,27.105 63.000 C 25.953 64.950,22.755 64.761,21.765 62.686 C 21.104 61.299,21.190 24.791,21.857 23.712 C 22.731 22.297,24.143 21.816,25.652 22.420 M57.571 28.136 C 60.841 30.130,59.271 33.765,55.141 33.765 C 51.543 33.765,49.820 31.584,51.451 29.095 C 52.393 27.656,55.886 27.109,57.571 28.136 M61.630 41.622 C 62.697 42.170,63.253 43.129,63.253 44.422 C 63.253 44.984,63.354 45.506,63.478 45.582 C 63.608 45.663,63.707 46.928,63.713 48.578 C 63.719 50.476,63.832 51.737,64.047 52.335 C 64.225 52.831,64.373 53.390,64.375 53.579 C 64.377 53.840,64.582 53.904,65.222 53.844 C 68.956 53.493,70.867 60.289,67.521 62.019 C 64.670 63.493,59.212 61.152,58.901 58.321 C 58.755 56.992,58.337 54.999,58.024 54.136 C 57.889 53.765,57.693 52.093,57.589 50.422 C 57.485 48.751,57.346 46.522,57.280 45.470 C 57.068 42.105,59.089 40.317,61.630 41.622 M86.914 52.172 C 88.471 53.064,88.620 54.886,87.449 58.751 C 87.243 59.432,86.979 60.495,86.862 61.114 C 86.058 65.368,85.564 67.294,84.958 68.530 C 84.658 69.143,84.412 69.828,84.412 70.053 C 84.412 70.668,83.077 72.911,82.478 73.304 C 80.009 74.921,76.553 71.991,77.854 69.384 C 78.123 68.843,78.563 67.563,78.782 66.679 C 78.883 66.273,79.077 65.806,79.214 65.642 C 79.574 65.208,80.088 63.383,80.261 61.925 C 80.343 61.232,80.716 59.600,81.090 58.301 C 81.464 57.001,81.837 55.380,81.919 54.699 C 82.241 52.017,84.578 50.835,86.914 52.172 " stroke="none" fill="#fbfbfb" fill-rule="evenodd"></path><path id="path3" d="M213.844 9.873 C 212.791 9.952,215.789 10.017,220.506 10.017 C 226.656 10.017,229.170 10.090,229.397 10.277 C 229.745 10.563,232.549 10.795,232.380 10.523 C 232.322 10.431,231.694 10.355,230.983 10.355 C 230.272 10.355,229.584 10.248,229.454 10.118 C 229.177 9.841,216.834 9.647,213.844 9.873 M209.039 10.523 C 208.981 10.616,209.406 10.662,209.982 10.625 C 211.626 10.519,211.825 10.409,210.424 10.381 C 209.720 10.366,209.096 10.431,209.039 10.523 M206.190 10.969 C 205.082 11.100,204.882 11.397,205.972 11.293 C 206.465 11.246,206.924 11.117,206.993 11.006 C 207.061 10.895,207.086 10.821,207.048 10.841 C 207.009 10.861,206.624 10.918,206.190 10.969 M234.553 11.119 C 234.553 11.168,234.949 11.245,235.434 11.292 C 235.919 11.338,236.267 11.298,236.209 11.203 C 236.102 11.030,234.553 10.951,234.553 11.119 M237.902 11.768 C 238.010 11.877,238.390 11.929,238.746 11.885 C 239.341 11.811,239.325 11.795,238.548 11.687 C 238.064 11.620,237.789 11.655,237.902 11.768 M202.055 11.883 C 201.994 11.981,202.292 12.021,202.717 11.971 C 203.142 11.922,203.489 11.841,203.489 11.793 C 203.489 11.624,202.164 11.707,202.055 11.883 M200.113 12.380 L 199.550 12.561 200.169 12.583 C 200.509 12.595,200.788 12.504,200.788 12.380 C 200.788 12.257,200.763 12.165,200.732 12.178 C 200.701 12.190,200.422 12.281,200.113 12.380 M240.521 12.386 C 240.578 12.477,240.875 12.600,241.183 12.659 C 241.490 12.717,241.696 12.691,241.640 12.600 C 241.583 12.509,241.286 12.386,240.978 12.327 C 240.670 12.268,240.465 12.295,240.521 12.386 M243.007 13.077 C 243.076 13.189,243.324 13.281,243.557 13.281 C 243.790 13.281,244.036 13.371,244.104 13.480 C 244.171 13.590,244.608 13.751,245.073 13.838 C 245.539 13.925,246.021 14.074,246.145 14.169 C 246.496 14.438,247.399 14.613,247.258 14.385 C 247.188 14.273,246.941 14.181,246.708 14.181 C 246.475 14.181,246.229 14.091,246.161 13.982 C 246.093 13.872,245.657 13.711,245.191 13.624 C 244.725 13.537,244.243 13.388,244.119 13.293 C 243.768 13.024,242.866 12.849,243.007 13.077 M195.611 13.731 L 195.048 13.911 195.611 13.918 C 195.920 13.921,196.376 13.837,196.624 13.731 L 197.074 13.538 196.624 13.544 C 196.376 13.548,195.920 13.632,195.611 13.731 M249.975 15.537 C 250.032 15.629,250.329 15.751,250.637 15.810 C 250.945 15.869,251.150 15.842,251.094 15.751 C 251.038 15.660,250.740 15.537,250.432 15.479 C 250.125 15.420,249.919 15.446,249.975 15.537 M185.594 18.023 C 184.851 18.399,184.142 18.810,184.018 18.937 C 183.894 19.063,184.527 18.794,185.425 18.340 C 186.322 17.886,187.057 17.473,187.057 17.423 C 187.057 17.284,187.032 17.294,185.594 18.023 M254.924 17.716 C 255.172 17.975,255.627 18.246,255.937 18.320 L 256.500 18.454 255.913 18.174 C 255.591 18.021,255.135 17.749,254.901 17.571 C 254.530 17.289,254.534 17.309,254.924 17.716 M180.278 20.901 C 179.983 21.130,179.589 21.375,179.403 21.446 C 179.120 21.553,179.125 21.577,179.432 21.592 C 179.634 21.601,179.925 21.458,180.079 21.272 C 180.233 21.086,180.499 20.934,180.669 20.934 C 180.840 20.934,180.979 20.833,180.979 20.709 C 180.979 20.399,180.895 20.422,180.278 20.901 M261.339 21.317 C 261.339 21.417,261.669 21.642,262.071 21.816 C 262.473 21.990,263.172 22.419,263.623 22.771 C 264.074 23.123,264.523 23.410,264.621 23.410 C 264.719 23.410,265.059 23.638,265.377 23.917 L 265.954 24.423 265.408 23.804 C 265.108 23.464,264.768 23.185,264.653 23.185 C 264.537 23.185,264.074 22.907,263.623 22.566 C 262.529 21.741,261.339 21.090,261.339 21.317 M178.278 22.172 C 178.124 22.358,177.833 22.518,177.631 22.528 C 177.402 22.539,177.369 22.587,177.544 22.658 C 177.698 22.720,178.091 22.560,178.419 22.303 C 178.746 22.045,178.911 21.835,178.786 21.835 C 178.661 21.835,178.432 21.986,178.278 22.172 M176.301 23.579 C 175.763 24.105,175.754 24.131,176.241 23.751 C 177.202 23.003,177.248 22.960,177.089 22.960 C 177.004 22.960,176.649 23.239,176.301 23.579 M21.525 24.207 C 21.448 24.408,21.409 33.048,21.438 43.406 L 21.492 62.240 21.607 43.106 C 21.730 22.661,21.734 23.661,21.525 24.207 M267.692 25.556 C 268.028 25.910,268.344 26.155,268.393 26.099 C 268.443 26.044,268.167 25.754,267.781 25.455 L 267.079 24.912 267.692 25.556 M173.326 25.774 C 173.035 26.083,172.681 26.337,172.538 26.337 C 172.395 26.337,172.033 26.615,171.733 26.956 L 171.187 27.575 171.765 27.068 C 172.082 26.790,172.443 26.562,172.567 26.562 C 172.690 26.562,173.083 26.258,173.438 25.886 C 173.794 25.515,174.033 25.211,173.970 25.211 C 173.906 25.211,173.617 25.464,173.326 25.774 M271.234 28.419 C 272.167 29.413,272.369 29.591,272.369 29.422 C 272.369 29.386,271.888 28.905,271.300 28.353 L 270.231 27.349 271.234 28.419 M165.473 32.501 C 163.775 34.203,162.739 35.409,162.814 35.596 C 162.909 35.835,162.940 35.828,162.954 35.562 C 162.973 35.188,168.055 30.062,168.599 29.869 C 168.897 29.763,168.896 29.746,168.595 29.731 C 168.408 29.721,167.003 30.968,165.473 32.501 M58.970 30.884 C 58.911 31.467,58.945 31.860,59.047 31.758 C 59.148 31.656,59.197 31.180,59.155 30.699 L 59.079 29.826 58.970 30.884 M50.924 30.838 C 50.924 31.272,50.971 31.449,51.027 31.232 C 51.084 31.016,51.084 30.661,51.027 30.445 C 50.971 30.228,50.924 30.405,50.924 30.838 M279.572 36.804 C 280.245 37.485,280.846 38.042,280.908 38.042 C 280.969 38.042,280.470 37.485,279.797 36.804 C 279.125 36.123,278.524 35.566,278.462 35.566 C 278.400 35.566,278.900 36.123,279.572 36.804 M49.994 38.623 C 50.007 39.479,50.093 40.433,50.186 40.743 C 50.279 41.052,50.306 40.394,50.246 39.280 C 50.116 36.848,49.963 36.450,49.994 38.623 M160.172 38.443 C 159.378 39.394,159.363 39.434,160.023 38.829 C 160.647 38.256,161.333 37.350,161.122 37.374 C 161.087 37.378,160.659 37.859,160.172 38.443 M35.566 38.717 L 29.826 38.841 35.453 38.888 C 38.790 38.916,41.218 38.846,41.418 38.717 C 41.604 38.597,41.654 38.520,41.531 38.546 C 41.407 38.572,38.723 38.649,35.566 38.717 M158.568 40.574 L 157.907 41.306 158.638 40.644 C 159.041 40.281,159.370 39.952,159.370 39.913 C 159.370 39.739,159.184 39.892,158.568 40.574 M282.667 40.532 C 282.946 40.850,283.174 41.198,283.174 41.306 C 283.174 41.413,283.579 41.982,284.074 42.570 C 284.569 43.157,284.978 43.720,284.983 43.822 C 284.987 43.924,285.249 44.311,285.566 44.682 C 285.986 45.176,286.059 45.214,285.839 44.823 C 285.242 43.765,285.075 43.523,284.243 42.512 C 283.779 41.947,283.399 41.386,283.399 41.265 C 283.399 41.145,283.120 40.801,282.780 40.501 L 282.161 39.955 282.667 40.532 M59.279 41.365 C 59.136 41.456,59.557 41.531,60.214 41.531 C 60.871 41.531,61.292 41.456,61.149 41.365 C 61.006 41.274,60.585 41.200,60.214 41.200 C 59.842 41.200,59.422 41.274,59.279 41.365 M157.491 41.830 C 157.286 42.056,157.119 42.328,157.119 42.434 C 157.119 42.540,156.891 42.887,156.612 43.204 L 156.106 43.782 156.725 43.236 C 157.065 42.936,157.344 42.589,157.344 42.466 C 157.344 42.342,157.511 42.056,157.716 41.830 C 157.921 41.603,158.038 41.418,157.976 41.418 C 157.914 41.418,157.696 41.603,157.491 41.830 M32.372 44.963 C 34.267 45.001,37.306 45.001,39.125 44.963 C 40.943 44.925,39.392 44.894,35.678 44.894 C 31.964 44.894,30.476 44.925,32.372 44.963 M63.477 48.463 L 63.588 51.435 63.653 48.640 C 63.688 47.102,63.638 45.765,63.541 45.668 C 63.444 45.570,63.415 46.828,63.477 48.463 M50.691 49.747 C 50.671 51.913,50.728 53.803,50.819 53.947 C 50.910 54.091,50.958 52.774,50.925 51.021 C 50.829 45.994,50.732 45.459,50.691 49.747 M154.435 46.399 C 154.426 46.600,154.266 46.891,154.080 47.046 C 153.894 47.200,153.750 47.491,153.760 47.692 C 153.775 47.998,153.798 48.003,153.902 47.721 C 153.970 47.535,154.175 47.212,154.357 47.002 C 154.540 46.793,154.636 46.489,154.571 46.327 C 154.490 46.124,154.448 46.146,154.435 46.399 M44.521 50.126 C 44.609 55.001,44.725 55.576,44.738 51.210 C 44.745 49.229,44.684 47.374,44.603 47.087 C 44.522 46.800,44.485 48.167,44.521 50.126 M152.994 48.763 C 152.769 49.065,152.634 49.435,152.695 49.586 C 152.771 49.773,152.812 49.758,152.824 49.539 C 152.834 49.363,153.010 49.034,153.216 48.806 C 153.421 48.579,153.548 48.353,153.497 48.304 C 153.446 48.255,153.220 48.462,152.994 48.763 M290.774 53.921 C 290.833 54.229,290.956 54.527,291.047 54.583 C 291.138 54.639,291.164 54.434,291.105 54.126 C 291.047 53.818,290.924 53.521,290.833 53.464 C 290.742 53.408,290.715 53.614,290.774 53.921 M66.649 54.080 C 66.701 54.111,67.098 54.440,67.531 54.811 L 68.317 55.487 67.656 54.755 C 67.293 54.353,66.896 54.024,66.775 54.024 C 66.653 54.024,66.597 54.049,66.649 54.080 M291.505 55.306 C 291.504 55.454,291.756 56.052,292.065 56.634 C 292.375 57.216,292.628 57.823,292.628 57.983 C 292.628 58.143,292.720 58.331,292.832 58.400 C 292.944 58.469,292.978 58.305,292.907 58.034 C 292.728 57.348,291.509 54.976,291.505 55.306 M87.929 55.946 C 87.852 56.147,87.800 56.582,87.814 56.912 C 87.834 57.362,87.884 57.287,88.016 56.612 C 88.202 55.655,88.161 55.340,87.929 55.946 M149.071 56.434 C 148.917 56.767,148.789 57.146,148.789 57.276 C 148.788 57.406,148.654 57.769,148.490 58.082 C 148.089 58.852,147.885 59.681,148.136 59.526 C 148.248 59.456,148.340 59.209,148.340 58.976 C 148.340 58.743,148.433 58.494,148.548 58.424 C 148.662 58.353,148.827 57.969,148.915 57.570 C 149.003 57.171,149.225 56.615,149.408 56.334 C 149.592 56.054,149.655 55.825,149.548 55.826 C 149.440 55.827,149.226 56.101,149.071 56.434 M51.210 58.188 C 51.210 58.845,51.286 59.336,51.379 59.279 C 51.472 59.221,51.548 58.730,51.548 58.188 C 51.548 57.645,51.472 57.155,51.379 57.097 C 51.286 57.040,51.210 57.531,51.210 58.188 M80.939 58.654 C 80.856 58.984,80.832 59.297,80.885 59.350 C 80.938 59.404,81.049 59.177,81.132 58.847 C 81.215 58.517,81.239 58.204,81.186 58.151 C 81.133 58.098,81.022 58.324,80.939 58.654 M87.253 58.647 C 87.176 58.848,87.122 59.182,87.132 59.388 C 87.143 59.595,87.241 59.465,87.350 59.100 C 87.562 58.389,87.487 58.038,87.253 58.647 M147.384 60.664 C 147.325 60.974,147.364 61.227,147.471 61.227 C 147.577 61.227,147.665 60.974,147.665 60.664 C 147.665 60.355,147.626 60.101,147.578 60.101 C 147.531 60.101,147.444 60.355,147.384 60.664 M80.398 61.040 C 80.377 61.494,80.302 62.051,80.231 62.278 C 80.109 62.666,80.116 62.667,80.357 62.292 C 80.497 62.073,80.572 61.516,80.524 61.054 L 80.436 60.214 80.398 61.040 M86.578 61.123 C 86.501 61.324,86.451 61.860,86.468 62.314 C 86.495 63.052,86.515 63.020,86.660 62.015 C 86.833 60.817,86.807 60.528,86.578 61.123 M293.925 61.575 C 293.984 61.882,294.107 62.180,294.198 62.236 C 294.289 62.293,294.316 62.087,294.257 61.779 C 294.198 61.472,294.075 61.174,293.984 61.118 C 293.893 61.061,293.867 61.267,293.925 61.575 M61.471 61.533 C 61.522 61.577,61.868 61.682,62.240 61.765 C 62.733 61.875,62.824 61.854,62.577 61.687 C 62.273 61.482,61.245 61.338,61.471 61.533 M64.322 62.292 C 64.848 62.339,65.709 62.339,66.235 62.292 C 66.761 62.245,66.331 62.206,65.279 62.206 C 64.226 62.206,63.796 62.245,64.322 62.292 M294.601 63.600 C 294.660 63.908,294.782 64.206,294.873 64.262 C 294.965 64.318,294.991 64.113,294.932 63.805 C 294.873 63.498,294.751 63.200,294.660 63.144 C 294.568 63.087,294.542 63.293,294.601 63.600 M85.903 64.856 C 85.716 65.795,85.897 65.977,86.100 65.053 C 86.186 64.664,86.209 64.299,86.151 64.242 C 86.094 64.184,85.982 64.461,85.903 64.856 M146.194 64.491 C 146.136 64.676,146.039 64.986,145.979 65.178 C 145.918 65.370,145.957 65.473,146.065 65.406 C 146.172 65.340,146.309 65.030,146.368 64.719 C 146.486 64.104,146.365 63.945,146.194 64.491 M295.219 65.379 C 295.280 65.572,295.399 65.906,295.485 66.123 C 295.571 66.339,295.767 67.074,295.921 67.755 L 296.200 68.993 296.079 67.755 C 296.013 67.074,295.868 66.420,295.756 66.303 C 295.645 66.185,295.554 65.913,295.554 65.697 C 295.554 65.481,295.454 65.243,295.332 65.168 C 295.208 65.091,295.158 65.185,295.219 65.379 M144.847 69.162 C 144.759 69.811,144.610 70.445,144.515 70.568 C 144.276 70.878,144.114 72.477,144.335 72.340 C 144.433 72.280,144.513 71.902,144.513 71.501 C 144.513 71.099,144.604 70.675,144.715 70.557 C 144.935 70.324,145.302 67.980,145.118 67.980 C 145.056 67.980,144.934 68.512,144.847 69.162 M77.809 69.480 C 77.607 69.682,77.624 71.403,77.831 71.729 C 77.922 71.872,77.997 71.391,77.997 70.660 C 77.997 69.930,77.988 69.331,77.978 69.331 C 77.968 69.331,77.892 69.398,77.809 69.480 M296.455 69.880 C 296.455 70.182,296.538 70.481,296.639 70.543 C 296.740 70.606,296.780 70.359,296.726 69.994 C 296.608 69.189,296.455 69.125,296.455 69.880 M297.191 73.157 C 297.191 73.714,297.235 73.942,297.289 73.663 C 297.343 73.385,297.343 72.929,297.289 72.651 C 297.235 72.372,297.191 72.600,297.191 73.157 M80.307 73.766 C 80.587 73.820,80.992 73.818,81.207 73.762 C 81.422 73.706,81.193 73.661,80.698 73.664 C 80.203 73.666,80.027 73.713,80.307 73.766 M143.733 74.114 C 143.563 74.637,143.488 76.298,143.642 76.134 C 143.726 76.044,143.830 75.490,143.874 74.902 C 143.953 73.838,143.907 73.577,143.733 74.114 M297.768 77.275 C 297.809 78.044,297.911 78.743,297.993 78.830 C 298.076 78.918,298.109 78.360,298.068 77.592 C 298.026 76.824,297.925 76.125,297.843 76.037 C 297.760 75.950,297.727 76.507,297.768 77.275 M142.974 80.979 C 143.011 83.237,143.104 82.974,143.213 80.303 C 143.247 79.467,143.199 78.784,143.106 78.784 C 143.014 78.784,142.954 79.772,142.974 80.979 M298.480 87.721 C 298.419 90.594,298.446 92.866,298.541 92.770 C 298.637 92.675,298.687 90.325,298.653 87.548 L 298.592 82.499 298.480 87.721 M143.017 94.654 C 143.017 95.768,143.055 96.252,143.102 95.730 C 143.149 95.207,143.150 94.296,143.103 93.704 C 143.057 93.112,143.018 93.540,143.017 94.654 M297.802 97.964 C 297.742 98.794,297.774 99.391,297.874 99.291 C 297.973 99.191,298.023 98.512,297.983 97.782 L 297.912 96.455 297.802 97.964 M143.574 100.225 C 143.695 101.584,143.967 101.728,143.872 100.383 C 143.830 99.770,143.726 99.268,143.641 99.268 C 143.557 99.268,143.527 99.699,143.574 100.225 M297.220 101.608 C 297.154 101.781,297.135 102.313,297.177 102.790 C 297.248 103.594,297.262 103.571,297.361 102.476 C 297.470 101.270,297.434 101.051,297.220 101.608 M144.349 103.995 C 144.349 104.553,144.393 104.781,144.447 104.502 C 144.501 104.223,144.501 103.768,144.447 103.489 C 144.393 103.210,144.349 103.438,144.349 103.995 M296.605 104.821 C 296.522 104.903,296.455 105.252,296.455 105.595 C 296.455 105.939,296.363 106.277,296.251 106.346 C 296.138 106.415,295.975 107.004,295.888 107.654 C 295.800 108.303,295.654 108.936,295.562 109.060 C 295.295 109.419,295.125 110.312,295.350 110.173 C 295.462 110.103,295.554 109.856,295.554 109.623 C 295.554 109.390,295.642 109.145,295.750 109.079 C 295.857 109.012,296.016 108.426,296.102 107.777 C 296.188 107.127,296.341 106.492,296.441 106.365 C 296.593 106.172,296.903 104.671,296.791 104.671 C 296.771 104.671,296.687 104.738,296.605 104.821 M144.888 106.246 C 144.955 106.927,145.100 107.581,145.211 107.698 C 145.323 107.816,145.414 108.089,145.414 108.304 C 145.414 108.520,145.514 108.758,145.636 108.834 C 145.852 108.967,145.810 108.705,145.483 107.878 C 145.397 107.662,145.201 106.927,145.047 106.246 L 144.768 105.008 144.888 106.246 M294.759 111.311 C 294.701 111.497,294.604 111.806,294.544 111.998 C 294.483 112.190,294.522 112.293,294.630 112.227 C 294.737 112.160,294.874 111.851,294.933 111.540 C 295.051 110.924,294.930 110.765,294.759 111.311 M146.711 112.672 C 146.770 112.980,146.893 113.277,146.984 113.334 C 147.075 113.390,147.101 113.184,147.042 112.877 C 146.984 112.569,146.861 112.271,146.770 112.215 C 146.679 112.159,146.652 112.364,146.711 112.672 M293.924 113.787 C 293.864 114.097,293.903 114.350,294.010 114.350 C 294.116 114.350,294.204 114.097,294.204 113.787 C 294.204 113.478,294.165 113.225,294.117 113.225 C 294.070 113.225,293.983 113.478,293.924 113.787 M147.386 114.698 C 147.445 115.005,147.568 115.303,147.659 115.359 C 147.750 115.416,147.777 115.210,147.718 114.903 C 147.659 114.595,147.536 114.297,147.445 114.241 C 147.354 114.185,147.328 114.390,147.386 114.698 M293.303 115.813 C 293.303 116.123,293.342 116.376,293.390 116.376 C 293.437 116.376,293.524 116.123,293.584 115.813 C 293.643 115.504,293.604 115.250,293.497 115.250 C 293.391 115.250,293.303 115.504,293.303 115.813 M148.060 116.488 C 148.119 116.798,148.206 117.051,148.254 117.051 C 148.301 117.051,148.340 116.798,148.340 116.488 C 148.340 116.179,148.253 115.926,148.146 115.926 C 148.039 115.926,148.001 116.179,148.060 116.488 M292.709 117.220 C 292.638 117.437,292.439 117.933,292.266 118.323 C 291.813 119.349,291.898 119.560,292.378 118.600 C 292.814 117.728,293.099 116.826,292.938 116.826 C 292.883 116.826,292.781 117.003,292.709 117.220 M148.584 117.551 C 148.566 117.911,149.410 119.752,149.594 119.752 C 149.714 119.752,149.430 119.009,149.190 118.698 C 149.077 118.551,148.898 118.146,148.794 117.797 C 148.689 117.449,148.595 117.338,148.584 117.551 M152.697 126.055 C 152.896 126.365,153.224 126.949,153.427 127.353 C 153.631 127.757,153.888 128.145,154.000 128.214 C 154.295 128.396,153.370 126.715,152.812 126.055 L 152.336 125.492 152.697 126.055 M288.086 126.674 C 287.609 127.234,286.750 128.981,286.951 128.981 C 287.044 128.981,287.305 128.551,287.531 128.025 C 287.757 127.499,288.101 126.891,288.294 126.674 C 288.488 126.458,288.595 126.280,288.533 126.280 C 288.472 126.280,288.270 126.458,288.086 126.674 M286.343 129.460 C 286.333 129.662,286.173 129.953,285.988 130.107 C 285.802 130.261,285.658 130.552,285.668 130.754 C 285.683 131.060,285.706 131.064,285.810 130.782 C 285.878 130.597,286.083 130.273,286.265 130.064 C 286.447 129.854,286.544 129.550,286.479 129.388 C 286.397 129.185,286.355 129.208,286.343 129.460 M284.975 131.531 C 284.975 131.695,284.731 132.058,284.433 132.338 C 283.911 132.829,283.453 133.841,283.870 133.583 C 283.982 133.514,284.074 133.327,284.074 133.167 C 284.074 133.008,284.286 132.686,284.545 132.452 C 285.158 131.898,285.519 131.232,285.208 131.232 C 285.080 131.232,284.975 131.367,284.975 131.531 M157.099 132.995 C 157.220 133.222,157.502 133.550,157.725 133.723 C 158.114 134.025,158.115 134.019,157.738 133.574 C 157.521 133.319,157.344 132.992,157.344 132.847 C 157.344 132.702,157.239 132.583,157.111 132.583 C 156.955 132.583,156.951 132.719,157.099 132.995 M282.743 134.695 L 282.200 135.397 282.844 134.785 C 283.198 134.448,283.442 134.132,283.387 134.083 C 283.332 134.033,283.042 134.309,282.743 134.695 M158.891 135.456 C 159.007 135.674,159.327 136.053,159.601 136.300 C 159.874 136.546,160.181 136.950,160.282 137.198 C 160.413 137.516,160.471 137.545,160.481 137.296 C 160.489 137.102,160.191 136.653,159.820 136.297 C 159.449 135.941,159.145 135.517,159.145 135.355 C 159.145 135.192,159.040 135.059,158.912 135.059 C 158.759 135.059,158.752 135.196,158.891 135.456 M279.733 138.387 C 279.149 138.979,278.672 139.560,278.672 139.678 C 278.672 139.796,277.330 141.262,275.689 142.935 L 272.707 145.976 275.802 142.941 C 277.504 141.271,278.897 139.806,278.897 139.684 C 278.897 139.563,279.374 138.979,279.958 138.387 C 280.541 137.795,280.968 137.310,280.906 137.310 C 280.844 137.310,280.316 137.795,279.733 138.387 M165.444 142.769 C 168.264 145.644,168.599 145.966,168.599 145.804 C 168.599 145.772,167.206 144.379,165.504 142.709 L 162.409 139.674 165.444 142.769 M169.612 146.764 C 170.095 147.259,170.542 147.665,170.603 147.665 C 170.665 147.665,170.320 147.259,169.837 146.764 C 169.353 146.269,168.907 145.864,168.845 145.864 C 168.783 145.864,169.128 146.269,169.612 146.764 M270.918 147.142 C 270.181 147.836,269.776 148.296,270.017 148.164 C 270.445 147.931,272.565 145.856,272.360 145.872 C 272.303 145.877,271.654 146.448,270.918 147.142 M171.075 148.049 C 171.261 148.117,171.666 148.387,171.975 148.650 L 172.538 149.128 171.992 148.509 C 171.692 148.168,171.287 147.898,171.092 147.907 C 170.788 147.923,170.786 147.943,171.075 148.049 M268.993 148.903 C 268.839 149.088,268.598 149.245,268.459 149.250 C 268.319 149.255,267.800 149.622,267.304 150.066 C 266.809 150.510,266.608 150.769,266.857 150.641 C 267.106 150.512,267.501 150.196,267.736 149.936 C 267.970 149.677,268.283 149.465,268.430 149.465 C 268.577 149.465,268.881 149.263,269.105 149.015 C 269.329 148.768,269.459 148.565,269.393 148.565 C 269.327 148.565,269.147 148.717,268.993 148.903 M174.902 150.929 C 175.762 151.564,175.802 151.578,175.802 151.266 C 175.802 151.142,175.662 151.041,175.492 151.041 C 175.321 151.041,175.056 150.889,174.902 150.703 C 174.747 150.518,174.513 150.366,174.380 150.366 C 174.247 150.366,174.482 150.619,174.902 150.929 M265.149 151.660 L 264.603 152.279 265.166 151.801 C 265.476 151.538,265.881 151.268,266.066 151.200 C 266.356 151.094,266.353 151.074,266.049 151.059 C 265.854 151.049,265.449 151.320,265.149 151.660 M180.171 154.385 C 180.240 154.497,180.627 154.754,181.032 154.957 C 181.436 155.161,182.020 155.489,182.330 155.688 L 182.893 156.049 182.330 155.573 C 181.670 155.015,179.989 154.090,180.171 154.385 M259.539 155.205 C 259.384 155.391,259.093 155.551,258.892 155.561 C 258.662 155.572,258.630 155.621,258.805 155.691 C 258.958 155.753,259.352 155.594,259.679 155.336 C 260.007 155.078,260.172 154.868,260.047 154.868 C 259.921 154.868,259.693 155.020,259.539 155.205 M187.057 158.275 C 187.057 158.382,187.310 158.469,187.620 158.469 C 187.929 158.469,188.182 158.430,188.182 158.383 C 188.182 158.336,187.929 158.248,187.620 158.189 C 187.310 158.130,187.057 158.169,187.057 158.275 M253.853 158.175 C 253.237 158.335,250.839 159.589,251.142 159.592 C 251.290 159.594,251.887 159.342,252.470 159.032 C 253.052 158.723,253.659 158.469,253.819 158.469 C 253.979 158.469,254.172 158.368,254.249 158.244 C 254.325 158.120,254.357 158.031,254.318 158.045 C 254.280 158.060,254.071 158.118,253.853 158.175 M188.407 158.740 C 188.613 158.925,190.433 159.814,190.433 159.730 C 190.433 159.574,189.422 158.985,188.858 158.811 C 188.548 158.716,188.346 158.684,188.407 158.740 M191.334 160.131 C 191.334 160.179,191.587 160.266,191.896 160.325 C 192.206 160.384,192.459 160.346,192.459 160.239 C 192.459 160.132,192.206 160.045,191.896 160.045 C 191.587 160.045,191.334 160.084,191.334 160.131 M193.025 160.726 C 193.082 160.817,193.380 160.940,193.687 160.999 C 193.995 161.057,194.200 161.031,194.144 160.940 C 194.088 160.849,193.790 160.726,193.482 160.667 C 193.175 160.608,192.969 160.635,193.025 160.726 M247.158 160.914 C 247.158 161.021,247.411 161.060,247.721 161.001 C 248.030 160.941,248.284 160.854,248.284 160.807 C 248.284 160.759,248.030 160.720,247.721 160.720 C 247.411 160.720,247.158 160.808,247.158 160.914 M195.051 161.401 C 195.108 161.492,195.405 161.615,195.713 161.674 C 196.021 161.733,196.226 161.706,196.170 161.615 C 196.114 161.524,195.816 161.401,195.508 161.342 C 195.201 161.284,194.995 161.310,195.051 161.401 M245.582 161.396 L 245.020 161.576 245.639 161.598 C 245.979 161.611,246.258 161.519,246.258 161.396 C 246.258 161.272,246.232 161.181,246.201 161.193 C 246.171 161.205,245.892 161.296,245.582 161.396 M197.087 162.092 C 197.156 162.204,197.403 162.296,197.636 162.296 C 197.869 162.296,198.119 162.391,198.191 162.508 C 198.263 162.625,198.801 162.789,199.386 162.874 C 199.971 162.959,200.571 163.124,200.718 163.241 C 200.865 163.358,201.270 163.411,201.618 163.359 C 202.235 163.266,202.233 163.263,201.533 163.230 C 201.138 163.212,200.759 163.107,200.691 162.997 C 200.624 162.888,200.086 162.726,199.496 162.639 C 198.907 162.551,198.323 162.402,198.199 162.307 C 197.847 162.039,196.946 161.864,197.087 162.092 M243.782 161.993 C 243.596 162.054,243.241 162.197,242.994 162.311 C 242.746 162.426,242.138 162.619,241.643 162.741 L 240.743 162.964 241.756 162.843 C 242.313 162.777,242.865 162.627,242.983 162.510 C 243.100 162.392,243.373 162.296,243.588 162.296 C 243.804 162.296,244.043 162.195,244.119 162.071 C 244.196 161.947,244.227 161.854,244.189 161.864 C 244.151 161.873,243.967 161.931,243.782 161.993 M239.196 163.374 C 239.136 163.472,239.434 163.512,239.858 163.462 C 240.283 163.413,240.630 163.333,240.630 163.284 C 240.630 163.115,239.305 163.198,239.196 163.374 M237.085 163.809 C 236.683 163.859,236.353 163.978,236.353 164.072 C 236.353 164.302,237.676 164.099,237.833 163.846 C 237.900 163.736,237.924 163.663,237.886 163.683 C 237.848 163.702,237.487 163.759,237.085 163.809 M203.489 163.960 C 203.489 164.008,203.836 164.088,204.261 164.138 C 204.686 164.187,204.984 164.148,204.923 164.050 C 204.814 163.873,203.489 163.790,203.489 163.960 M207.040 164.575 C 207.130 164.658,207.631 164.764,208.154 164.811 C 208.677 164.857,209.031 164.827,208.942 164.744 C 208.852 164.661,208.351 164.555,207.828 164.508 C 207.305 164.462,206.951 164.492,207.040 164.575 M233.427 164.488 C 232.870 164.536,232.343 164.645,232.256 164.731 C 232.169 164.816,232.574 164.851,233.156 164.807 C 233.739 164.764,234.311 164.637,234.429 164.525 C 234.546 164.413,234.597 164.340,234.541 164.361 C 234.486 164.383,233.984 164.440,233.427 164.488 M211.793 165.288 C 211.891 165.386,212.824 165.436,213.864 165.399 L 215.757 165.331 213.685 165.221 C 212.545 165.160,211.694 165.190,211.793 165.288 M227.688 165.166 C 226.698 165.208,225.816 165.314,225.728 165.402 C 225.641 165.489,226.476 165.527,227.585 165.488 C 228.693 165.448,229.600 165.321,229.600 165.206 C 229.600 165.091,229.575 165.018,229.544 165.042 C 229.513 165.067,228.678 165.123,227.688 165.166 " stroke="none" fill="#a8a8a8" fill-rule="evenodd"></path><path id="path4" d="M23.422 22.498 C 23.211 22.631,23.449 22.659,24.097 22.576 C 24.648 22.506,25.141 22.411,25.192 22.366 C 25.403 22.183,23.723 22.308,23.422 22.498 M22.286 23.297 C 21.995 23.606,21.800 23.896,21.852 23.942 C 21.904 23.989,22.183 23.736,22.471 23.381 C 23.115 22.586,23.002 22.535,22.286 23.297 M26.923 23.860 C 27.034 24.046,27.180 27.440,27.249 31.401 L 27.374 38.604 27.362 31.356 C 27.352 25.452,27.291 24.053,27.035 23.815 C 26.774 23.572,26.755 23.580,26.923 23.860 M45.582 26.989 C 45.335 27.098,44.879 27.477,44.570 27.831 L 44.008 28.475 44.704 27.847 C 45.527 27.105,46.728 26.857,47.757 27.216 C 48.309 27.408,48.433 27.409,48.242 27.218 C 47.908 26.884,46.162 26.734,45.582 26.989 M53.461 27.901 C 53.203 28.005,53.685 28.034,54.586 27.968 C 55.453 27.904,56.204 27.815,56.256 27.770 C 56.443 27.604,53.899 27.724,53.461 27.901 M51.887 28.810 C 51.533 29.180,51.286 29.511,51.339 29.546 C 51.392 29.580,51.756 29.278,52.147 28.873 C 52.539 28.468,52.786 28.137,52.696 28.137 C 52.606 28.137,52.242 28.440,51.887 28.810 M58.483 29.375 C 58.597 29.623,58.746 29.977,58.815 30.163 C 58.923 30.455,58.943 30.453,58.958 30.150 C 58.968 29.957,58.818 29.602,58.626 29.362 C 58.281 28.932,58.279 28.932,58.483 29.375 M49.575 32.864 C 49.563 34.907,49.622 36.753,49.706 36.966 C 49.790 37.178,49.831 35.862,49.797 34.039 C 49.705 29.174,49.601 28.618,49.575 32.864 M43.720 33.934 L 43.669 38.492 42.712 38.495 C 42.186 38.497,41.621 38.584,41.455 38.689 C 41.281 38.800,41.657 38.835,42.356 38.772 C 43.990 38.625,43.912 38.883,43.838 33.861 L 43.772 29.375 43.720 33.934 M51.115 31.302 C 51.105 31.495,51.255 31.849,51.447 32.090 C 51.792 32.520,51.794 32.520,51.590 32.077 C 51.476 31.829,51.327 31.474,51.258 31.289 C 51.150 30.997,51.130 30.999,51.115 31.302 M58.075 32.696 C 57.743 33.148,57.689 33.305,57.932 33.108 C 58.301 32.808,58.859 31.964,58.688 31.964 C 58.645 31.964,58.369 32.293,58.075 32.696 M55.149 33.540 L 53.236 33.681 55.037 33.719 C 56.027 33.741,56.989 33.660,57.175 33.540 C 57.361 33.420,57.411 33.339,57.288 33.360 C 57.164 33.381,56.201 33.462,55.149 33.540 M27.912 38.717 C 27.449 38.865,27.429 38.901,27.800 38.916 C 28.047 38.927,28.402 38.837,28.588 38.717 C 28.982 38.462,28.708 38.462,27.912 38.717 M50.151 42.881 C 50.205 44.367,50.313 45.702,50.392 45.849 C 50.586 46.212,50.433 41.700,50.222 40.855 C 50.129 40.484,50.097 41.396,50.151 42.881 M62.684 42.960 C 62.779 43.128,62.941 43.786,63.044 44.423 L 63.230 45.582 63.161 44.387 C 63.122 43.730,62.961 43.072,62.801 42.924 C 62.574 42.714,62.549 42.722,62.684 42.960 M57.242 45.245 C 57.242 45.926,57.285 46.204,57.336 45.864 C 57.388 45.523,57.388 44.966,57.336 44.626 C 57.285 44.285,57.242 44.564,57.242 45.245 M42.473 44.501 C 42.412 44.601,42.802 44.647,43.340 44.604 L 44.318 44.526 44.408 45.562 L 44.498 46.598 44.478 45.528 L 44.457 44.457 43.521 44.389 C 43.006 44.351,42.535 44.402,42.473 44.501 M27.290 53.161 C 27.261 57.948,27.179 62.051,27.107 62.278 C 26.990 62.650,27.002 62.653,27.223 62.311 C 27.391 62.051,27.448 59.205,27.406 53.195 L 27.344 44.457 27.290 53.161 M83.793 52.005 C 83.013 52.318,83.193 52.456,84.018 52.178 C 84.420 52.042,84.792 51.895,84.843 51.852 C 85.026 51.697,84.292 51.804,83.793 52.005 M85.312 51.820 C 85.374 51.881,85.777 52.050,86.208 52.196 C 86.638 52.341,86.891 52.363,86.770 52.245 C 86.649 52.126,86.246 51.958,85.875 51.869 C 85.504 51.781,85.250 51.759,85.312 51.820 M57.644 52.335 C 57.638 52.583,57.730 52.938,57.850 53.123 C 58.139 53.571,58.139 53.008,57.850 52.335 L 57.657 51.885 57.644 52.335 M82.539 52.980 C 82.342 53.281,82.125 53.816,82.057 54.169 L 81.933 54.811 82.189 54.136 C 82.330 53.765,82.600 53.283,82.789 53.066 C 82.979 52.848,83.080 52.617,83.015 52.552 C 82.950 52.487,82.736 52.680,82.539 52.980 M87.901 54.811 C 87.901 55.469,87.975 55.890,88.066 55.747 C 88.157 55.604,88.232 55.183,88.232 54.811 C 88.232 54.440,88.157 54.019,88.066 53.876 C 87.975 53.733,87.901 54.154,87.901 54.811 M50.818 55.203 C 50.936 57.113,51.059 57.355,51.076 55.712 C 51.084 54.969,51.010 54.234,50.911 54.078 C 50.812 53.922,50.770 54.429,50.818 55.203 M64.153 54.036 C 64.153 54.104,64.703 54.155,65.374 54.148 C 66.078 54.141,66.463 54.062,66.284 53.961 C 65.944 53.771,64.154 53.833,64.153 54.036 M58.316 54.830 C 58.325 55.191,58.422 55.689,58.531 55.937 C 58.665 56.238,58.686 56.051,58.597 55.374 C 58.439 54.181,58.294 53.900,58.316 54.830 M67.529 55.037 C 67.962 55.532,68.405 56.038,68.513 56.162 C 68.621 56.286,68.605 56.185,68.477 55.937 C 68.349 55.689,67.906 55.183,67.493 54.812 L 66.742 54.137 67.529 55.037 M44.962 56.329 C 45.083 58.371,45.189 58.630,45.215 56.950 C 45.228 56.145,45.157 55.359,45.058 55.203 C 44.959 55.048,44.916 55.554,44.962 56.329 M81.512 56.988 C 81.497 57.194,81.427 57.549,81.356 57.776 C 81.233 58.166,81.240 58.167,81.484 57.787 C 81.625 57.566,81.695 57.212,81.639 56.999 C 81.548 56.651,81.535 56.649,81.512 56.988 M87.363 57.875 C 87.225 58.273,87.150 58.638,87.199 58.686 C 87.247 58.734,87.400 58.448,87.538 58.050 C 87.677 57.653,87.751 57.288,87.703 57.240 C 87.655 57.191,87.502 57.478,87.363 57.875 M58.992 57.982 C 59.000 58.343,59.097 58.841,59.207 59.088 C 59.340 59.389,59.362 59.202,59.272 58.526 C 59.114 57.333,58.969 57.051,58.992 57.982 M45.675 59.838 C 45.796 60.065,46.072 60.394,46.288 60.570 C 46.532 60.767,46.477 60.610,46.146 60.158 C 45.555 59.350,45.333 59.200,45.675 59.838 M50.421 60.158 C 50.090 60.610,50.036 60.767,50.279 60.570 C 50.648 60.270,51.206 59.426,51.035 59.426 C 50.992 59.426,50.716 59.755,50.421 60.158 M80.714 60.005 C 80.631 60.335,80.607 60.648,80.660 60.701 C 80.713 60.754,80.824 60.528,80.907 60.198 C 80.990 59.868,81.014 59.555,80.961 59.502 C 80.908 59.448,80.797 59.675,80.714 60.005 M86.685 60.236 C 86.556 60.705,86.491 61.129,86.540 61.179 C 86.590 61.228,86.736 60.885,86.866 60.416 C 86.995 59.948,87.060 59.523,87.011 59.474 C 86.961 59.424,86.815 59.767,86.685 60.236 M60.664 61.002 C 61.035 61.248,61.441 61.449,61.564 61.450 C 61.688 61.450,61.458 61.248,61.053 61.001 C 60.097 60.418,59.784 60.419,60.664 61.002 M47.892 61.161 C 48.172 61.215,48.578 61.213,48.793 61.156 C 49.008 61.100,48.779 61.056,48.284 61.058 C 47.788 61.061,47.612 61.107,47.892 61.161 M62.802 61.790 C 63.112 61.966,63.467 62.111,63.590 62.111 C 63.714 62.111,63.562 61.966,63.253 61.790 C 62.943 61.613,62.589 61.468,62.465 61.468 C 62.341 61.468,62.493 61.613,62.802 61.790 M21.627 61.915 C 21.617 62.108,21.767 62.463,21.960 62.703 C 22.304 63.133,22.306 63.133,22.102 62.690 C 21.989 62.442,21.839 62.088,21.770 61.902 C 21.662 61.610,21.643 61.612,21.627 61.915 M80.275 62.474 C 80.198 62.675,80.145 63.059,80.158 63.327 C 80.173 63.636,80.249 63.526,80.366 63.029 C 80.563 62.193,80.509 61.864,80.275 62.474 M86.014 63.725 C 85.876 64.121,85.769 64.607,85.778 64.806 C 85.786 65.004,85.933 64.714,86.105 64.162 C 86.466 63.006,86.390 62.646,86.014 63.725 M85.441 66.308 C 85.358 66.637,85.334 66.951,85.387 67.004 C 85.440 67.057,85.551 66.830,85.634 66.501 C 85.717 66.171,85.741 65.857,85.688 65.804 C 85.635 65.751,85.524 65.978,85.441 66.308 M78.913 66.533 C 78.830 66.863,78.806 67.176,78.859 67.229 C 78.912 67.282,79.023 67.056,79.106 66.726 C 79.189 66.396,79.213 66.082,79.160 66.029 C 79.107 65.976,78.996 66.203,78.913 66.533 M78.321 68.351 C 78.197 68.680,78.127 69.047,78.168 69.168 C 78.208 69.289,78.354 69.021,78.492 68.571 C 78.781 67.628,78.657 67.468,78.321 68.351 M82.542 72.826 C 82.195 73.132,82.000 73.382,82.109 73.382 C 82.218 73.382,82.545 73.129,82.836 72.819 C 83.509 72.103,83.360 72.107,82.542 72.826 " stroke="none" fill="#7c7c7c" fill-rule="evenodd"></path></g></svg>